HIERARCHY
ROOT Hips
{
    OFFSET 0.000000 0.000000 0.000000
    CHANNELS 6 Xposition Yposition Zposition Zrotation Xrotation Yrotation
    JOINT Spine
    {
        OFFSET -0.000000 8.104110 0.000000
        CHANNELS 3 Zrotation Xrotation Yrotation
        JOINT Spine1
        {
            OFFSET -0.000000 22.417536 0.000000
            CHANNELS 3 Zrotation Xrotation Yrotation
            JOINT Neck
            {
                OFFSET -0.000000 22.325472 2.029588
                CHANNELS 3 Zrotation Xrotation Yrotation
                JOINT Head
                {
                    OFFSET -0.000000 13.836284 -1.976612
                    CHANNELS 3 Zrotation Xrotation Yrotation
                    End Site
                    {
                        OFFSET -0.000000 24.707651 0.000000
                    }
                }
            }
            JOINT LeftShoulder
            {
                OFFSET 3.973640 20.379602 -0.279950
                CHANNELS 3 Zrotation Xrotation Yrotation
                JOINT LeftArm
                {
                    OFFSET 11.493720 0.000000 0.000000
                    CHANNELS 3 Zrotation Xrotation Yrotation
                    JOINT LeftForeArm
                    {
                        OFFSET 31.336695 0.000000 0.000000
                        CHANNELS 3 Zrotation Xrotation Yrotation
                        JOINT LeftHand
                        {
                            OFFSET 29.043781 0.000000 0.000000
                            CHANNELS 3 Zrotation Xrotation Yrotation
                            End Site
                            {
                                OFFSET 14.824592 0.000000 0.000000
                            }
                        }
                    }
                }
            }
            JOINT RightShoulder
            {
                OFFSET -3.921018 20.379602 -0.279950
                CHANNELS 3 Zrotation Xrotation Yrotation
                JOINT RightArm
                {
                    OFFSET -11.493720 0.000000 0.000000
                    CHANNELS 3 Zrotation Xrotation Yrotation
                    JOINT RightForeArm
                    {
                        OFFSET -31.336695 0.000000 0.000000
                        CHANNELS 3 Zrotation Xrotation Yrotation
                        JOINT RightHand
                        {
                            OFFSET -29.043781 0.000000 0.000000
                            CHANNELS 3 Zrotation Xrotation Yrotation
                            End Site
                            {
                                OFFSET -14.824592 0.000000 0.000000
                            }
                        }
                    }
                }
            }
        }
    }
    JOINT LeftUpLeg
    {
        OFFSET 9.883060 0.000000 0.000000
        CHANNELS 3 Zrotation Xrotation Yrotation
        JOINT LeftLeg
        {
            OFFSET -0.000000 -43.587502 0.000000
            CHANNELS 3 Zrotation Xrotation Yrotation
            JOINT LeftFoot
            {
                OFFSET -0.000000 -41.501083 0.000000
                CHANNELS 3 Zrotation Xrotation Yrotation
                JOINT LeftToeBase
                {
                    OFFSET -0.000000 -6.423989 14.824592
                    CHANNELS 3 Zrotation Xrotation Yrotation
                    End Site
                    {
                        OFFSET -0.000000 0.000000 3.953224
                    }
                }
            }
        }
    }
    JOINT RightUpLeg
    {
        OFFSET -9.883060 0.000000 0.000000
        CHANNELS 3 Zrotation Xrotation Yrotation
        JOINT RightLeg
        {
            OFFSET -0.000000 -43.587502 0.000000
            CHANNELS 3 Zrotation Xrotation Yrotation
            JOINT RightFoot
            {
                OFFSET -0.000000 -41.501083 0.000000
                CHANNELS 3 Zrotation Xrotation Yrotation
                JOINT RightToeBase
                {
                    OFFSET -0.000000 -6.423989 14.824592
                    CHANNELS 3 Zrotation Xrotation Yrotation
                    End Site
                    {
                        OFFSET -0.000000 0.000000 3.953224
                    }
                }
            }
        }
    }
}
MOTION
Frames:    8
Frame Time:    0.008333
-8.263981    95.661499    195.552124    -0.444279    1.628274    -177.599747    -0.409669    -8.102720    0.140583    -0.508303    2.709819    0.181516    0.394404    16.891329    0.376063    -0.292111    8.084440    0.372689    16.357962    -1.147558    -4.071860    -12.073560    -4.019144    2.691281    0.608494    2.081230    0.191234    -0.040145    2.081368    -3.291447    -17.381886    -2.694162    -3.286904    10.790591    0.131724    5.655019    0.359179    1.301670    -0.235441    7.443795    1.749374    6.865275    -2.035434    10.297417    -0.087654    -0.683166    -3.941003    -1.351289    -1.525460    2.143233    4.177221    0.000000    0.000000    0.000000    -1.761471    12.516366    2.446429    3.637885    -5.058672    7.182744    -0.689519    -1.573933    -14.992332    0.000000    0.000000    0.000000    
-8.258859    95.661560    195.561432    -0.449082    1.634681    -177.595490    -0.406951    -8.097356    0.129765    -0.518893    2.701142    0.171157    0.392857    17.011658    0.363685    -0.302257    7.852382    0.358944    16.355297    -1.144591    -4.044281    -12.071839    -4.031048    2.680984    0.617122    2.078855    0.193684    -0.048384    2.079236    -3.297249    -17.381916    -2.676373    -3.277876    10.798914    0.083308    5.678194    0.363688    1.312991    -0.248826    7.456670    1.762330    6.877906    -2.032003    10.292449    -0.093354    -0.700603    -3.944427    -1.210275    -1.506311    2.179221    4.046214    0.000000    0.000000    0.000000    -1.765625    12.518712    2.488762    3.655941    -5.099038    7.078600    -0.702534    -1.508556    -14.956665    0.000000    0.000000    0.000000    
-8.254436    95.659889    195.571030    -0.452910    1.641016    -177.588898    -0.395434    -8.151663    0.141710    -0.611527    2.866601    0.185514    0.551379    16.805639    0.344442    -0.371377    7.909760    0.333948    16.584442    -1.237351    -3.949413    -12.243444    -3.980095    2.557218    0.636350    2.021287    0.264986    -0.059050    2.021511    -3.328512    -17.356379    -2.786294    -3.337873    10.841522    0.154807    5.627895    0.356111    1.293601    -0.189905    7.459524    1.740216    6.835505    -2.063206    10.267256    -0.047271    -0.644069    -3.895821    -1.185028    -1.522558    2.152484    3.967439    0.000000    0.000000    0.000000    -1.765881    12.511712    2.458730    3.658290    -5.079734    7.067257    -0.695514    -1.533008    -14.918822    0.000000    0.000000    0.000000    
-8.249326    95.661720    195.580139    -0.450137    1.659699    -177.586090    -0.336521    -8.095418    0.113955    -0.673540    2.780675    0.153972    0.477983    16.892067    0.366415    -0.335054    7.839384    0.359290    16.514132    -1.206865    -3.881165    -12.166507    -3.937261    2.548268    0.634313    2.004138    0.259186    -0.030077    2.003564    -3.305935    -17.351725    -2.772032    -3.304831    10.853524    0.116023    5.696566    0.364569    1.326682    -0.231082    7.453628    1.774291    6.854002    -2.022062    10.298899    -0.116745    -0.696739    -3.920619    -1.288201    -1.540538    2.141718    4.137479    0.000000    0.000000    0.000000    -1.769162    12.532158    2.491116    3.668228    -5.087234    7.047133    -0.678513    -1.538713    -14.931114    0.000000    0.000000    0.000000    
-8.246556    95.662041    195.589188    -0.457763    1.670485    -177.575729    -0.354346    -8.090314    0.109840    -0.655765    2.779551    0.151099    0.481772    16.893394    0.369949    -0.356619    7.830712    0.361459    16.495861    -1.204392    -3.883280    -12.160532    -3.958119    2.542660    0.648511    2.015292    0.260305    -0.077684    2.016089    -3.305811    -17.354153    -2.759609    -3.310454    10.851768    0.134913    5.696844    0.352592    1.313789    -0.227323    7.485153    1.763988    6.865564    -2.031818    10.297341    -0.115356    -0.682907    -3.907607    -1.277044    -1.546641    2.141963    4.108299    0.000000    0.000000    0.000000    -1.771258    12.539048    2.417422    3.642775    -5.049308    7.126980    -0.641265    -1.608645    -14.916225    0.000000    0.000000    0.000000    
-8.239752    95.662369    195.600372    -0.453303    1.670786    -177.568054    -0.377082    -8.097840    0.111786    -0.611103    2.778987    0.153664    0.481871    16.997356    0.331754    -0.394460    7.648168    0.318657    16.472696    -1.204624    -3.903302    -12.157699    -4.017659    2.533859    0.652330    2.045660    0.277762    -0.066972    2.045999    -3.301003    -17.347490    -2.730124    -3.326567    10.828463    0.045413    5.711892    0.364724    1.335673    -0.245897    7.467793    1.784763    6.863197    -2.011032    10.287253    -0.121710    -0.693901    -3.887636    -1.397649    -1.554543    2.106781    4.222919    0.000000    0.000000    0.000000    -1.759341    12.530482    2.382952    3.636145    -5.046843    7.093581    -0.615472    -1.608377    -14.848284    0.000000    0.000000    0.000000    
-8.236999    95.663475    195.611557    -0.455489    1.670474    -177.554733    -0.391181    -8.101672    0.111127    -0.589077    2.771737    0.153393    0.468391    17.009840    0.333537    -0.393561    7.623711    0.320400    16.463524    -1.198922    -3.913665    -12.166117    -4.050175    2.516522    0.664308    2.067492    0.294581    -0.089113    2.068406    -3.322817    -17.356476    -2.722703    -3.335506    10.835283    0.031083    5.707934    0.350794    1.336632    -0.252880    7.478006    1.787078    6.874865    -2.010768    10.272873    -0.153567    -0.692091    -3.878634    -1.360788    -1.569010    2.116027    4.204958    0.000000    0.000000    0.000000    -1.769247    12.535222    2.365961    3.666977    -5.108477    7.009809    -0.492812    -1.584248    -14.661398    0.000000    0.000000    0.000000    
-8.230709    95.664230    195.621490    -0.447122    1.676639    -177.550247    -0.406795    -8.060679    0.104778    -0.495939    2.650021    0.144985    0.329507    17.747480    0.175486    -0.332831    6.614677    0.159151    16.270731    -1.131626    -4.011114    -12.040046    -4.048841    2.600489    0.670506    2.070670    0.284488    -0.097507    2.071848    -3.333245    -17.389029    -2.641227    -3.319763    10.813139    -0.018518    5.761192    0.366889    1.328554    -0.289134    7.364420    1.770406    6.845777    -1.996397    10.266349    -0.141765    -0.702751    -3.869687    -1.374030    -1.550454    2.111921    4.198162    0.000000    0.000000    0.000000    -1.762528    12.540405    2.362258    3.671763    -5.112543    6.984288    -0.478444    -1.590802    -14.633222    0.000000    0.000000    0.000000    
